<svg width="240" viewBox="0 0 481 59" fill="none" xmlns="http://www.w3.org/2000/svg">
<path fill-rule="evenodd" clip-rule="evenodd" d="M32.1509 29.1504L38.3789 32.0639C39.0145 32.3172 39.7767 32.1906 40.1584 31.8106C40.2813 31.688 40.4171 31.5657 40.558 31.439C40.8606 31.1664 41.1738 30.8835 41.4293 30.5437C41.9378 30.0371 42.0649 29.2771 41.6834 28.7703L38.76 22.5633C39.7767 20.9167 40.5395 19.0166 41.0482 17.1165L47.6577 14.8363C48.2929 14.583 48.6744 14.0763 48.8014 13.3162V12.4296V11.5429C48.8014 10.9095 48.2929 10.2761 47.6577 10.0227L41.1752 7.61597C40.6665 5.71589 39.9043 3.81579 38.8874 2.16905L39.5097 0.847931C52.0446 4.63584 61.1117 16.1855 61.1117 29.9269C61.1117 35.2182 59.7549 40.1845 57.3723 44.5077C57.2199 44.1513 56.7352 43.9167 56.3682 43.9167L51.1303 44.1722C50.2361 43.0227 49.2142 42.0008 48.0646 41.1069L48.32 35.8702C48.32 35.4868 48.0646 34.9761 47.6812 34.8483C47.1703 34.5929 46.7868 34.4651 46.276 34.3375C45.8925 34.2097 45.3818 34.3375 45.1262 34.5929L41.6765 38.4246C40.2713 38.1691 38.7384 38.1691 37.3332 38.4246L33.8839 34.5929C33.6285 34.2097 33.1176 34.0819 32.7342 34.3375C32.622 34.3934 32.51 34.4249 32.4087 34.4533C32.2794 34.4898 32.1672 34.5212 32.0953 34.5929C31.84 34.7205 31.5844 34.8483 31.4564 34.8483C31.0735 34.9761 30.8177 35.4868 30.8177 35.8702L31.0735 41.1069C29.9233 42.0008 28.7736 43.0227 28.0073 44.1722L22.7695 43.9167C22.3862 43.9167 21.8752 44.1722 21.7473 44.5552C21.4919 45.0662 21.3643 45.4494 21.2363 45.9603C21.1084 46.3435 21.2363 46.8543 21.4919 47.1097L25.3243 50.5582C25.069 51.9633 25.069 53.496 25.3243 54.9009L21.4919 58.3495C21.3087 58.4713 21.1839 58.6515 21.1315 58.8479C8.84115 54.888 0 43.3937 0 29.9269C0 25.2921 1.04123 20.9066 2.90079 16.9841C3.42524 18.8899 4.18795 20.79 5.20478 22.4367L2.15434 28.7703C1.90024 29.4038 2.0273 30.1637 2.40843 30.5437C2.5314 30.6663 2.65438 30.8019 2.78142 30.9423C3.04907 31.2373 3.33528 31.5529 3.67978 31.8106C4.18795 32.3172 4.95068 32.4439 5.45885 32.0639L11.6872 29.1504C13.3397 30.1637 15.2458 30.9237 17.1524 31.4306L19.4406 38.0175C19.6947 38.6508 20.2034 39.0308 20.9656 39.1575H21.8554H22.7451C23.3808 39.1575 24.016 38.6508 24.2706 38.0175L26.5582 31.4306C28.719 30.9237 30.4985 30.1637 32.1509 29.1504ZM39.3511 58.5201C42.6289 58.5201 45.2865 55.8993 45.2865 52.6664C45.2865 49.4336 42.6289 46.8129 39.3511 46.8129C36.0732 46.8129 33.4156 49.4336 33.4156 52.6664C33.4156 55.8993 36.0732 58.5201 39.3511 58.5201ZM30.3357 12.3663C30.3357 16.9668 26.5959 20.6964 21.9825 20.6964C17.369 20.6964 13.6291 16.9668 13.6291 12.3663C13.6291 7.76571 17.369 4.03622 21.9825 4.03622C26.5959 4.03622 30.3357 7.76571 30.3357 12.3663Z" fill="white"/>
<path d="M89.5007 15.4534C89.5007 14.7006 89.8771 14.3242 90.63 14.3242H95.7116C96.4645 14.3242 96.8409 14.7006 96.8409 15.4534V29.6255H112.368V15.4534C112.368 14.7006 112.745 14.3242 113.497 14.3242H118.579C119.332 14.3242 119.708 14.7006 119.708 15.4534V52.7188C119.708 53.4716 119.332 53.848 118.579 53.848H113.497C112.745 53.848 112.368 53.4716 112.368 52.7188V36.514H96.8409V52.7188C96.8409 53.4716 96.4645 53.848 95.7116 53.848H90.63C89.8771 53.848 89.5007 53.4716 89.5007 52.7188V15.4534Z" fill="white"/>
<path d="M147.068 51.5895C146.09 52.4176 144.998 53.0952 143.794 53.6222C142.627 54.1492 141.083 54.4126 139.164 54.4126C137.394 54.4126 135.701 54.1303 134.082 53.5657C132.463 53.0011 131.033 52.1541 129.791 51.0249C128.549 49.858 127.551 48.4088 126.798 46.6773C126.083 44.9457 125.725 42.9131 125.725 40.5793C125.725 38.3961 126.083 36.4575 126.798 34.7636C127.551 33.0321 128.549 31.5829 129.791 30.416C131.033 29.2115 132.463 28.3081 134.082 27.7058C135.738 27.0659 137.489 26.746 139.333 26.746C141.14 26.746 142.627 26.9906 143.794 27.48C144.96 27.9317 146.033 28.5904 147.012 29.4562V28.4398C147.012 27.687 147.388 27.3106 148.141 27.3106H152.884C153.637 27.3106 154.013 27.687 154.013 28.4398V52.7188C154.013 53.4716 153.637 53.848 152.884 53.848H148.875C148.499 53.848 148.198 53.7539 147.972 53.5657C147.746 53.3775 147.539 52.9823 147.351 52.38L147.068 51.5895ZM147.012 38.8854C147.012 38.0197 146.899 37.2668 146.673 36.6269C146.447 35.987 146.033 35.3847 145.431 34.8201C144.791 34.2178 144.057 33.7661 143.229 33.465C142.401 33.1262 141.422 32.9568 140.293 32.9568C139.314 32.9568 138.373 33.1451 137.47 33.5215C136.604 33.8602 135.832 34.3496 135.155 34.9895C134.477 35.6294 133.931 36.4387 133.517 37.4174C133.141 38.3584 132.953 39.4124 132.953 40.5793C132.953 41.7838 133.141 42.8566 133.517 43.7977C133.894 44.7387 134.402 45.5292 135.042 46.1691C135.719 46.809 136.491 47.3172 137.357 47.6936C138.26 48.0324 139.201 48.2018 140.18 48.2018C141.347 48.2018 142.401 47.9947 143.342 47.5807C144.283 47.1666 145.055 46.5832 145.657 45.8303C146.146 45.1904 146.485 44.5881 146.673 44.0235C146.899 43.4589 147.012 42.7249 147.012 41.8215V38.8854Z" fill="white"/>
<path d="M185.16 48.2582C185.348 48.4464 185.442 48.6535 185.442 48.8793C185.442 49.1052 185.329 49.331 185.103 49.5569C183.372 51.4013 181.64 52.6811 179.909 53.3963C178.177 54.0739 176.201 54.4126 173.98 54.4126C172.061 54.4126 170.235 54.1303 168.503 53.5657C166.772 52.9634 165.229 52.0977 163.874 50.9684C162.556 49.8015 161.502 48.3523 160.712 46.6208C159.921 44.8893 159.526 42.8754 159.526 40.5793C159.526 38.509 159.902 36.6269 160.655 34.933C161.446 33.2015 162.5 31.7335 163.817 30.5289C165.172 29.3244 166.734 28.4022 168.503 27.7623C170.31 27.0847 172.23 26.746 174.263 26.746C176.672 26.746 178.704 27.1412 180.361 27.9317C182.054 28.6845 183.428 29.6067 184.482 30.6983C184.784 30.9995 184.934 31.2818 184.934 31.5453C184.934 31.7711 184.821 32.0158 184.595 32.2793L181.829 35.7235C181.603 35.9494 181.377 36.0623 181.151 36.0623C180.888 36.0623 180.643 35.9494 180.417 35.7235C179.438 34.7448 178.479 34.0485 177.537 33.6344C176.634 33.1827 175.505 32.9568 174.15 32.9568C173.133 32.9568 172.174 33.1451 171.27 33.5215C170.404 33.8602 169.633 34.3684 168.955 35.046C168.278 35.6859 167.732 36.4952 167.318 37.4739C166.941 38.4149 166.753 39.4689 166.753 40.6358C166.753 41.765 166.941 42.8002 167.318 43.7412C167.694 44.6823 168.202 45.4916 168.842 46.1691C169.52 46.809 170.31 47.3172 171.214 47.6936C172.117 48.0324 173.077 48.2018 174.093 48.2018C175.298 48.2018 176.427 47.9759 177.481 47.5242C178.573 47.0349 179.608 46.2632 180.586 45.2092C180.812 44.9834 181.038 44.8705 181.264 44.8705C181.49 44.8705 181.716 44.9834 181.942 45.2092L185.16 48.2582Z" fill="white"/>
<path d="M190.056 14.3242C190.056 13.5713 190.433 13.1949 191.186 13.1949H195.928C196.681 13.1949 197.058 13.5713 197.058 14.3242V34.4249L203.156 28.1011C203.607 27.5741 204.115 27.3106 204.68 27.3106H211.681C212.133 27.3106 212.359 27.4988 212.359 27.8752C212.359 28.1011 212.284 28.2893 212.133 28.4398L203.212 37.5868L214.279 52.7752C214.392 52.9634 214.448 53.1328 214.448 53.2834C214.448 53.6598 214.222 53.848 213.771 53.848H206.826C206.261 53.848 205.809 53.5845 205.471 53.0575L198.074 42.8943L197.058 43.9106V52.7188C197.058 53.4716 196.681 53.848 195.928 53.848H191.186C190.433 53.848 190.056 53.4716 190.056 52.7188V14.3242Z" fill="white"/>
<path d="M234.826 33.5215H230.817C230.064 33.5215 229.688 33.1451 229.688 32.3922V28.4398C229.688 27.687 230.064 27.3106 230.817 27.3106H234.826V19.2929C234.826 18.54 235.202 18.1636 235.955 18.1636H240.698C241.451 18.1636 241.827 18.54 241.827 19.2929V27.3106H247.586C248.339 27.3106 248.716 27.687 248.716 28.4398V32.3922C248.716 33.1451 248.339 33.5215 247.586 33.5215H241.827V44.5882C241.827 46.9972 242.825 48.2018 244.82 48.2018C245.384 48.2018 245.893 48.1641 246.344 48.0888C246.834 47.9759 247.229 47.9194 247.53 47.9194C247.906 47.9194 248.095 48.1265 248.095 48.5405V53.2834C248.095 53.5845 248.038 53.7727 247.925 53.848C247.812 53.9609 247.586 54.0551 247.248 54.1303C246.721 54.2056 246.1 54.2621 245.384 54.2997C244.707 54.375 244.01 54.4126 243.295 54.4126C240.736 54.4126 238.684 53.8292 237.141 52.6623C235.598 51.4954 234.826 49.6133 234.826 47.016V33.5215Z" fill="white"/>
<path d="M253.742 14.3242C253.742 13.5713 254.119 13.1949 254.871 13.1949H259.614C260.367 13.1949 260.744 13.5713 260.744 14.3242V30.6983C262.061 29.4562 263.529 28.4963 265.148 27.8187C266.766 27.1035 268.498 26.746 270.342 26.746C273.203 26.746 275.405 27.4611 276.948 28.8915C278.529 30.3219 279.32 32.204 279.32 34.5378V52.7188C279.32 53.4716 278.943 53.848 278.191 53.848H273.448C272.695 53.848 272.318 53.4716 272.318 52.7188V36.8528C272.318 34.2555 271.001 32.9568 268.366 32.9568C267.124 32.9568 265.995 33.3144 264.978 34.0296C264 34.7072 263.19 35.5353 262.55 36.514C261.948 37.455 261.496 38.3961 261.195 39.3371C260.894 40.2405 260.744 41.4639 260.744 43.0072V52.7188C260.744 53.4716 260.367 53.848 259.614 53.848H254.871C254.119 53.848 253.742 53.4716 253.742 52.7188V14.3242Z" fill="white"/>
<path d="M310.661 48.0888C310.849 48.277 310.943 48.4841 310.943 48.7099C310.943 48.9358 310.83 49.1616 310.604 49.3875C309.701 50.2909 308.816 51.0625 307.951 51.7024C307.123 52.3047 306.238 52.8129 305.297 53.2269C304.394 53.641 303.415 53.9421 302.361 54.1303C301.307 54.3185 300.14 54.4126 298.86 54.4126C297.016 54.4126 295.247 54.1115 293.553 53.5092C291.897 52.907 290.41 52.0224 289.092 50.8555C287.812 49.6886 286.777 48.2394 285.987 46.5079C285.234 44.7764 284.858 42.8002 284.858 40.5793C284.858 38.4714 285.234 36.5705 285.987 34.8766C286.74 33.1827 287.737 31.7335 288.979 30.5289C290.259 29.3244 291.727 28.4022 293.383 27.7623C295.04 27.0847 296.79 26.746 298.634 26.746C300.931 26.746 302.926 27.16 304.619 27.9881C306.313 28.7786 307.706 29.8326 308.798 31.15C309.927 32.4299 310.755 33.8791 311.282 35.4977C311.809 37.0786 312.073 38.6784 312.073 40.297V41.9909C312.073 42.7437 311.696 43.1201 310.943 43.1201H291.746C292.235 44.8893 293.139 46.2256 294.456 47.129C295.774 47.9947 297.336 48.4276 299.143 48.4276C300.648 48.4276 301.947 48.1265 303.038 47.5242C304.168 46.9219 305.165 46.1503 306.031 45.2092C306.294 44.8705 306.577 44.7011 306.878 44.7011C307.104 44.7011 307.348 44.8328 307.612 45.0963L310.661 48.0888ZM305.071 37.248C304.619 35.8176 303.829 34.6884 302.7 33.8602C301.57 33.0321 300.197 32.6181 298.578 32.6181C296.846 32.6181 295.397 33.0698 294.23 33.9732C293.063 34.8766 292.235 35.9682 291.746 37.248H305.071Z" fill="white"/>
<path d="M332.224 15.4534C332.224 14.7006 332.6 14.3242 333.353 14.3242H338.153C338.717 14.3242 339.131 14.4371 339.395 14.6629C339.696 14.8512 339.959 15.1146 340.185 15.4534L356.729 39.0548V15.4534C356.729 14.7006 357.105 14.3242 357.858 14.3242H362.94C363.692 14.3242 364.069 14.7006 364.069 15.4534V52.7188C364.069 53.4716 363.692 53.848 362.94 53.848H358.931C358.366 53.848 357.933 53.7539 357.632 53.5657C357.369 53.3399 357.124 53.0575 356.898 52.7188L339.564 28.2704V52.7188C339.564 53.4716 339.188 53.848 338.435 53.848H333.353C332.6 53.848 332.224 53.4716 332.224 52.7188V15.4534Z" fill="white"/>
<path d="M384.163 54.4126C382.244 54.4126 380.418 54.1303 378.687 53.5657C376.993 53.0011 375.506 52.1353 374.226 50.9684C372.946 49.8015 371.93 48.3711 371.177 46.6773C370.424 44.9457 370.048 42.9131 370.048 40.5793C370.048 38.4337 370.405 36.514 371.121 34.8201C371.873 33.0886 372.871 31.6394 374.113 30.4725C375.393 29.2679 376.88 28.3457 378.574 27.7058C380.305 27.0659 382.168 26.746 384.163 26.746C386.121 26.746 387.965 27.0659 389.697 27.7058C391.428 28.3457 392.915 29.2679 394.157 30.4725C395.437 31.6394 396.435 33.0886 397.15 34.8201C397.903 36.514 398.279 38.4337 398.279 40.5793C398.279 42.9131 397.903 44.9457 397.15 46.6773C396.397 48.3711 395.381 49.8015 394.101 50.9684C392.821 52.1353 391.315 53.0011 389.584 53.5657C387.89 54.1303 386.083 54.4126 384.163 54.4126ZM384.163 48.2018C386.309 48.2018 387.984 47.5054 389.189 46.1126C390.431 44.7199 391.052 42.8943 391.052 40.6358C391.052 39.3936 390.864 38.302 390.487 37.3609C390.111 36.4199 389.603 35.6294 388.963 34.9895C388.36 34.3119 387.645 33.8038 386.817 33.465C385.989 33.1262 385.104 32.9568 384.163 32.9568C383.222 32.9568 382.338 33.1262 381.51 33.465C380.682 33.8038 379.948 34.3119 379.308 34.9895C378.705 35.6294 378.216 36.4199 377.84 37.3609C377.463 38.302 377.275 39.3936 377.275 40.6358C377.275 42.8943 377.877 44.7199 379.082 46.1126C380.324 47.5054 382.018 48.2018 384.163 48.2018Z" fill="white"/>
<path d="M403.942 28.4398C403.942 27.687 404.318 27.3106 405.071 27.3106H409.814C410.567 27.3106 410.943 27.687 410.943 28.4398V30.1337C411.884 29.0797 412.994 28.2516 414.274 27.6494C415.554 27.0471 417.079 26.746 418.848 26.746C421.483 26.746 423.553 27.5364 425.059 29.1174C426.602 30.6607 427.374 32.6745 427.374 35.1589C427.374 35.9117 426.997 36.2881 426.244 36.2881H421.671C421.37 36.2881 421.163 36.2317 421.05 36.1188C420.937 35.9682 420.843 35.7235 420.768 35.3847C420.542 33.7661 419.507 32.9568 417.662 32.9568C416.683 32.9568 415.836 33.1639 415.121 33.5779C414.444 33.992 413.841 34.5002 413.314 35.1024C412.599 35.9305 412.016 36.928 411.564 38.0949C411.15 39.2618 410.943 40.6922 410.943 42.3861V52.7188C410.943 53.4716 410.567 53.848 409.814 53.848H405.071C404.318 53.848 403.942 53.4716 403.942 52.7188V28.4398Z" fill="white"/>
<path d="M435.753 33.5215H431.745C430.992 33.5215 430.615 33.1451 430.615 32.3922V28.4398C430.615 27.687 430.992 27.3106 431.745 27.3106H435.753V19.2929C435.753 18.54 436.13 18.1636 436.883 18.1636H441.626C442.378 18.1636 442.755 18.54 442.755 19.2929V27.3106H448.514C449.267 27.3106 449.643 27.687 449.643 28.4398V32.3922C449.643 33.1451 449.267 33.5215 448.514 33.5215H442.755V44.5882C442.755 46.9972 443.752 48.2018 445.747 48.2018C446.312 48.2018 446.82 48.1641 447.272 48.0888C447.761 47.9759 448.156 47.9194 448.458 47.9194C448.834 47.9194 449.022 48.1265 449.022 48.5405V53.2834C449.022 53.5845 448.966 53.7727 448.853 53.848C448.74 53.9609 448.514 54.0551 448.175 54.1303C447.648 54.2056 447.027 54.2621 446.312 54.2997C445.634 54.375 444.938 54.4126 444.223 54.4126C441.663 54.4126 439.612 53.8292 438.068 52.6623C436.525 51.4954 435.753 49.6133 435.753 47.016V33.5215Z" fill="white"/>
<path d="M454.67 14.3242C454.67 13.5713 455.046 13.1949 455.799 13.1949H460.542C461.295 13.1949 461.671 13.5713 461.671 14.3242V30.6983C462.989 29.4562 464.457 28.4963 466.075 27.8187C467.694 27.1035 469.425 26.746 471.27 26.746C474.131 26.746 476.333 27.4611 477.876 28.8915C479.457 30.3219 480.247 32.204 480.247 34.5378V52.7188C480.247 53.4716 479.871 53.848 479.118 53.848H474.375C473.622 53.848 473.246 53.4716 473.246 52.7188V36.8528C473.246 34.2555 471.929 32.9568 469.294 32.9568C468.051 32.9568 466.922 33.3144 465.906 34.0296C464.927 34.7072 464.118 35.5353 463.478 36.514C462.876 37.455 462.424 38.3961 462.123 39.3371C461.822 40.2405 461.671 41.4639 461.671 43.0072V52.7188C461.671 53.4716 461.295 53.848 460.542 53.848H455.799C455.046 53.848 454.67 53.4716 454.67 52.7188V14.3242Z" fill="white"/>
</svg>
